<svg width="397" height="34" viewBox="0 0 397 34" fill="none" xmlns="http://www.w3.org/2000/svg">
<path d="M394.336 0.234375V33.75H391.875V0.234375H394.336Z" fill="#5CC886"/>
<path d="M396.336 0.234375V33.75H393.875V0.234375H396.336Z" fill="#5CC886"/>
<path d="M328.758 30.8203V33.75H325.594V30.8203H328.758Z" fill="#5CC886"/>
<path d="M316.594 32.4375C313.734 33.4688 310.742 33.9844 307.617 33.9844C295.633 33.9844 289.641 28.1641 289.641 16.5234C289.641 5.50781 295.5 0 307.219 0C310.422 0 313.547 0.46875 316.594 1.40625V3.51562C313.547 2.57812 310.578 2.10938 307.688 2.10938C297.297 2.10938 292.102 6.91406 292.102 16.5234C292.102 26.7578 297.148 31.875 307.242 31.875C309.305 31.875 311.602 31.5312 314.133 30.8438V18.5156H316.594V32.4375Z" fill="#5CC886"/>
<path d="M255.516 33.75V0.234375H258.68L281.062 29.5781V0.234375H283.289V33.75H281.297L257.742 3V33.75H255.516Z" fill="#5CC886"/>
<path d="M246.82 0.234375V33.75H244.359V0.234375H246.82Z" fill="#5CC886"/>
<path d="M220.453 31.6406C229.75 31.6406 234.398 26.4531 234.398 16.0781C234.398 6.92188 229.75 2.34375 220.453 2.34375H211.195V31.6406H220.453ZM208.734 33.75V0.234375H220.688C231.625 0.234375 237.094 5.51562 237.094 16.0781C237.094 27.8594 231.547 33.75 220.453 33.75H208.734Z" fill="#5CC886"/>
<path d="M179.766 33.75V0.234375H193.594C199.656 0.234375 202.688 2.91406 202.688 8.27344C202.688 12.9141 199.398 16.2031 192.82 18.1406L204.141 33.75H200.766L189.633 18.2109V16.5469C196.508 15.5312 199.945 12.8359 199.945 8.46094C199.945 4.42969 197.695 2.41406 193.195 2.41406H182.227V33.75H179.766Z" fill="#5CC886"/>
<path d="M144.492 33.75H141.867L157.031 0.234375H159.961L175.195 33.75H172.266L167.297 22.5H152.273L153 20.3906H166.383L158.344 2.15625L144.492 33.75Z" fill="#5CC886"/>
<path d="M107.742 16.8984C107.742 26.8828 112.453 31.875 121.875 31.875C131.125 31.875 135.75 26.8828 135.75 16.8984C135.75 7.03906 131.125 2.10938 121.875 2.10938C112.453 2.10938 107.742 7.03906 107.742 16.8984ZM105.047 17.0391C105.047 5.67969 110.656 0 121.875 0C132.922 0 138.445 5.67969 138.445 17.0391C138.445 28.3359 132.922 33.9844 121.875 33.9844C110.656 33.9844 105.047 28.3359 105.047 17.0391Z" fill="#5CC886"/>
<path d="M75.0469 33.75V0.234375H89.3438C95.7188 0.234375 98.9062 2.83594 98.9062 8.03906C98.9062 11.8516 96.5938 14.5781 91.9688 16.2188C96.875 17.0469 99.3281 19.6641 99.3281 24.0703C99.3281 30.5234 95.8359 33.75 88.8516 33.75H75.0469ZM88.5938 31.6406C94 31.6406 96.7031 29.1406 96.7031 24.1406C96.7031 19.7188 93.3203 17.5078 86.5547 17.5078H84.6797V15.8438C92.4922 15.1406 96.3984 12.5938 96.3984 8.20312C96.3984 4.29688 93.9922 2.34375 89.1797 2.34375H77.5078V31.6406H88.5938Z" fill="#5CC886"/>
<path d="M39.75 33.75V0.234375H42.9141L65.2969 29.5781V0.234375H67.5234V33.75H65.5312L41.9766 3V33.75H39.75Z" fill="#5CC886"/>
<path d="M2.69531 16.8984C2.69531 26.8828 7.40625 31.875 16.8281 31.875C26.0781 31.875 30.7031 26.8828 30.7031 16.8984C30.7031 7.03906 26.0781 2.10938 16.8281 2.10938C7.40625 2.10938 2.69531 7.03906 2.69531 16.8984ZM0 17.0391C0 5.67969 5.60938 0 16.8281 0C27.875 0 33.3984 5.67969 33.3984 17.0391C33.3984 28.3359 27.875 33.9844 16.8281 33.9844C5.60938 33.9844 0 28.3359 0 17.0391Z" fill="#5CC886"/>
<path fill-rule="evenodd" clip-rule="evenodd" d="M364.646 3.45317C362.7 0.239567 358.037 0.239569 356.092 3.45317L343.057 24.9791C341.36 27.7817 342.788 31.2388 345.602 32.267L357.73 12.2381C358.897 10.3099 361.695 10.3099 362.862 12.2381L375.015 32.309C377.909 31.3364 379.401 27.8212 377.68 24.9791L364.646 3.45317Z" fill="#5CC886"/>
<path d="M359.646 20.4012C360.036 19.7617 360.964 19.7617 361.354 20.4012L367.801 30.9796C368.207 31.646 367.727 32.5 366.947 32.5H354.053C353.273 32.5 352.793 31.646 353.199 30.9796L359.646 20.4012Z" fill="#5CC886"/>
</svg>
