<svg width="111" height="33" viewBox="0 0 111 33" fill="none" xmlns="http://www.w3.org/2000/svg">
<path d="M103.659 32.9999V4.3999H110.059V32.9999H103.659Z" fill="#5CC886"/>
<path d="M64.8141 32.9999L77.6941 4.3999H87.5741L100.454 32.9999H93.4941L90.7741 26.9599H74.4941L71.7741 32.9999H64.8141ZM76.8141 21.7599H88.4541L82.8941 9.3999H82.3741L76.8141 21.7599Z" fill="#5CC886"/>
<path d="M0.400024 32.9999L13.28 4.3999H23.16L36.04 32.9999H29.08L26.36 26.9599H10.08L7.36002 32.9999H0.400024ZM12.4 21.7599H24.04L18.48 9.3999H17.96L12.4 21.7599Z" fill="#5CC886"/>
<path d="M39.2 10.98V7.53004H46.07V0.540039H49.82V7.53004H56.66V10.98H49.82V18H46.07V10.98H39.2Z" fill="#FF7997"/>
</svg>
